<svg width="24" height="24" viewBox="0 0 24 24" fill="none" xmlns="http://www.w3.org/2000/svg">
<mask id="mask0_1_123" style="mask-type:alpha" maskUnits="userSpaceOnUse" x="0" y="0" width="24" height="24">
<rect width="24" height="24" fill="#D9D9D9"/>
</mask>
<g mask="url(#mask0_1_123)">
<path d="M9.24999 2.50003C10.5642 2.50003 11.7992 2.74936 12.955 3.24803C14.1108 3.7467 15.1162 4.42345 15.9712 5.27828C16.8262 6.13313 17.5031 7.13837 18.0018 8.29401C18.5006 9.44962 18.75 10.6844 18.75 11.9983C18.75 13.3123 18.5006 14.5473 18.0018 15.7034C17.5031 16.8596 16.8262 17.8653 15.9712 18.7205C15.1162 19.5757 14.1108 20.2528 12.955 20.7517C11.7992 21.2505 10.5642 21.5 9.24999 21.5C8.54537 21.5 7.85737 21.4211 7.18599 21.2634C6.51459 21.1057 5.86928 20.8628 5.25006 20.5346C6.65903 19.5641 7.76126 18.3298 8.55676 16.8317C9.35228 15.3337 9.75004 13.7231 9.75004 12C9.75004 10.2769 9.35228 8.66637 8.55676 7.16828C7.76126 5.67022 6.65903 4.43592 5.25006 3.46541C5.86928 3.13721 6.51459 2.89426 7.18599 2.73658C7.85737 2.57888 8.54537 2.50003 9.24999 2.50003Z" fill="#1C1B1F"/>
</g>
</svg>
