<svg width="25" height="24" viewBox="0 0 25 24" fill="none" xmlns="http://www.w3.org/2000/svg">
<mask id="mask0_1_7" style="mask-type:alpha" maskUnits="userSpaceOnUse" x="0" y="0" width="25" height="24">
<rect x="0.5" width="24" height="24" fill="#D9D9D9"/>
</mask>
<g mask="url(#mask0_1_7)">
<path d="M14.3827 21.7558C14.1968 21.857 14.0067 21.8731 13.8125 21.8038C13.6183 21.7346 13.4705 21.607 13.3693 21.4211L11.7731 18.2288C11.6718 18.0429 11.6558 17.8529 11.725 17.6586C11.7942 17.4644 11.9218 17.3167 12.1077 17.2154C12.2936 17.1141 12.4852 17.0997 12.6827 17.1721C12.8801 17.2446 13.0295 17.3737 13.1308 17.5596L14.7269 20.7423C14.8282 20.9282 14.8426 21.1183 14.7702 21.3125C14.6977 21.5067 14.5686 21.6545 14.3827 21.7558ZM20.3923 21.7558C20.2064 21.857 20.0164 21.8731 19.8221 21.8038C19.6279 21.7346 19.4802 21.607 19.3789 21.4211L17.7827 18.2288C17.6814 18.0429 17.6654 17.8529 17.7346 17.6586C17.8039 17.4644 17.9314 17.3167 18.1173 17.2154C18.3032 17.1141 18.4949 17.0997 18.6923 17.1721C18.8897 17.2446 19.0391 17.3737 19.1404 17.5596L20.7365 20.7423C20.8378 20.9282 20.8522 21.1183 20.7798 21.3125C20.7074 21.5067 20.5782 21.6545 20.3923 21.7558ZM8.38268 21.7558C8.1968 21.857 8.00514 21.8731 7.80771 21.8038C7.61027 21.7346 7.46091 21.607 7.35963 21.4211L5.76348 18.2288C5.6622 18.0429 5.64777 17.8529 5.72021 17.6586C5.79264 17.4644 5.92181 17.3167 6.10771 17.2154C6.29359 17.1141 6.48365 17.0997 6.67788 17.1721C6.87211 17.2446 7.01986 17.3737 7.12113 17.5596L8.71731 20.7423C8.81859 20.9282 8.83461 21.1183 8.76538 21.3125C8.69615 21.5067 8.56858 21.6545 8.38268 21.7558ZM8.00001 15.75C6.54744 15.75 5.30931 15.2381 4.28561 14.2144C3.26189 13.1907 2.75003 11.9526 2.75003 10.5C2.75003 9.16155 3.19714 7.99809 4.09136 7.00963C4.98559 6.02118 6.09809 5.44489 7.42886 5.28078C7.94296 4.33719 8.64648 3.59617 9.53943 3.0577C10.4324 2.51925 11.4192 2.25002 12.5 2.25002C13.968 2.25002 15.2369 2.72758 16.3067 3.6827C17.3766 4.63783 18.0122 5.82886 18.2135 7.25578C19.4019 7.34296 20.3718 7.79392 21.1231 8.60867C21.8743 9.42341 22.25 10.3872 22.25 11.5C22.25 12.6795 21.8365 13.6827 21.0096 14.5096C20.1827 15.3365 19.1795 15.75 18 15.75L8.00001 15.75ZM8.00001 14.2501H18C18.7641 14.2501 19.4135 13.9827 19.9481 13.4481C20.4827 12.9135 20.75 12.2641 20.75 11.5C20.75 10.7359 20.4827 10.0866 19.9481 9.55193C19.4135 9.01731 18.7641 8.75 18 8.75H16.75V8C16.75 6.82948 16.3343 5.82852 15.5029 4.9971C14.6715 4.16568 13.6705 3.74998 12.5 3.74998C11.6487 3.74998 10.8731 3.98107 10.1731 4.44325C9.47306 4.90543 8.94678 5.52563 8.59423 6.30385L8.41153 6.74998H7.95001C6.92949 6.78331 6.05769 7.16152 5.33461 7.8846C4.61152 8.60768 4.24998 9.47948 4.24998 10.5C4.24998 11.5372 4.61569 12.4215 5.34711 13.1529C6.07852 13.8843 6.96282 14.2501 8.00001 14.2501Z" fill="#1C1B1F"/>
</g>
</svg>
