<svg width="24" height="24" viewBox="0 0 24 24" fill="none" xmlns="http://www.w3.org/2000/svg">
<mask id="mask0_1_78" style="mask-type:alpha" maskUnits="userSpaceOnUse" x="0" y="0" width="24" height="24">
<rect width="24" height="24" fill="#D9D9D9"/>
</mask>
<g mask="url(#mask0_1_78)">
<path d="M3.34618 5V3.50002H6.20196V5H3.34618ZM6.06731 10.2769L4.99811 9.23273L7.01733 7.2135L8.08653 8.2577L6.06731 10.2769ZM12 8.00963C10.7449 8.00963 9.67791 7.5702 8.79908 6.69135C7.92023 5.81252 7.48081 4.74554 7.48081 3.49043H8.98078C8.98078 4.33016 9.27405 5.0433 9.86058 5.62985C10.4471 6.21638 11.1603 6.50965 12 6.50965C12.8398 6.50965 13.5529 6.21638 14.1394 5.62985C14.726 5.0433 15.0192 4.33016 15.0192 3.49043H16.5192C16.5192 4.74554 16.0798 5.81252 15.2009 6.69135C14.3221 7.5702 13.2551 8.00963 12 8.00963ZM11.25 12.0962V9.2404H12.75V12.0962H11.25ZM17.9519 10.2865L15.9385 8.2577L16.9827 7.2135L19.0211 9.21732L17.9519 10.2865ZM17.7981 5V3.50002H20.6538V5H17.7981ZM2.25003 20.6154V19.0962C2.82566 19.0641 3.26284 18.8958 3.56156 18.5913C3.86027 18.2869 4.45642 18.1346 5.35001 18.1346C6.26282 18.1346 6.88301 18.3013 7.21058 18.6346C7.53815 18.968 8.02116 19.1346 8.65963 19.1346C9.3186 19.1346 9.81186 18.968 10.1394 18.6346C10.467 18.3013 11.0872 18.1346 12 18.1346C12.8923 18.1346 13.5125 18.3013 13.8606 18.6346C14.2086 18.968 14.7019 19.1346 15.3404 19.1346C15.9994 19.1346 16.4875 18.968 16.8048 18.6346C17.1221 18.3013 17.7372 18.1346 18.65 18.1346C19.5436 18.1346 20.1397 18.2869 20.4385 18.5913C20.7372 18.8958 21.1743 19.0641 21.75 19.0962V20.6154C20.9731 20.5769 20.4106 20.4038 20.0625 20.0961C19.7144 19.7884 19.2436 19.6346 18.65 19.6346C18.018 19.6346 17.5365 19.8013 17.2058 20.1346C16.875 20.4679 16.2532 20.6346 15.3404 20.6346C14.4481 20.6346 13.8279 20.4679 13.4798 20.1346C13.1317 19.8013 12.6385 19.6346 12 19.6346C11.341 19.6346 10.8477 19.8013 10.5202 20.1346C10.1926 20.4679 9.57245 20.6346 8.65963 20.6346C7.74681 20.6346 7.13015 20.4679 6.80963 20.1346C6.48911 19.8013 6.00257 19.6346 5.35001 19.6346C4.72949 19.6346 4.26026 19.7884 3.94231 20.0961C3.62436 20.4038 3.06026 20.5769 2.25003 20.6154ZM2.25003 16.7308V15.2116C2.82566 15.1795 3.26284 15.0112 3.56156 14.7067C3.86027 14.4023 4.45642 14.25 5.35001 14.25C6.24231 14.25 6.85736 14.4167 7.19518 14.75C7.53301 15.0834 8.02116 15.25 8.65963 15.25C9.3186 15.25 9.81186 15.0834 10.1394 14.75C10.467 14.4167 11.0872 14.25 12 14.25C12.8923 14.25 13.5099 14.4167 13.8529 14.75C14.1958 15.0834 14.6814 15.25 15.3096 15.25C15.9686 15.25 16.4619 15.0834 16.7894 14.75C17.117 14.4167 17.7372 14.25 18.65 14.25C19.5231 14.25 20.1192 14.4023 20.4385 14.7067C20.7577 15.0112 21.1949 15.1795 21.75 15.2116V16.7308C20.9526 16.6923 20.3849 16.5192 20.0471 16.2115C19.7093 15.9038 19.2436 15.75 18.65 15.75C18.018 15.75 17.5365 15.9166 17.2058 16.25C16.875 16.5833 16.2532 16.75 15.3404 16.75C14.4481 16.75 13.8279 16.5833 13.4798 16.25C13.1317 15.9166 12.6385 15.75 12 15.75C11.341 15.75 10.8529 15.9166 10.5356 16.25C10.2183 16.5833 9.6032 16.75 8.69038 16.75C7.77756 16.75 7.15065 16.5833 6.80963 16.25C6.4686 15.9166 5.98206 15.75 5.35001 15.75C4.75001 15.75 4.28077 15.9038 3.94231 16.2115C3.60386 16.5192 3.03976 16.6923 2.25003 16.7308Z" fill="#1C1B1F"/>
</g>
</svg>
