<svg width="24" height="24" viewBox="0 0 24 24" fill="none" xmlns="http://www.w3.org/2000/svg">
<mask id="mask0_1_31" style="mask-type:alpha" maskUnits="userSpaceOnUse" x="0" y="0" width="24" height="24">
<rect width="24" height="24" fill="#D9D9D9"/>
</mask>
<g mask="url(#mask0_1_31)">
<path d="M11.5 19.6346C10.7821 19.6346 10.1651 19.3926 9.64905 18.9087C9.13303 18.4247 8.84618 17.8333 8.78848 17.1346H10.3077C10.359 17.4244 10.4949 17.6635 10.7154 17.8519C10.9359 18.0404 11.1974 18.1346 11.5 18.1346C11.8474 18.1346 12.1426 18.0132 12.3856 17.7702C12.6286 17.5273 12.75 17.2321 12.75 16.8846C12.75 16.5372 12.6286 16.242 12.3856 15.999C12.1426 15.7561 11.8474 15.6346 11.5 15.6346H2.25V14.1346H11.5C12.2628 14.1346 12.9118 14.4023 13.4471 14.9375C13.9823 15.4728 14.25 16.1218 14.25 16.8846C14.25 17.6474 13.9823 18.2965 13.4471 18.8317C12.9118 19.367 12.2628 19.6346 11.5 19.6346ZM2.25 9.86538V8.3654H15.5C15.9974 8.3654 16.4135 8.19809 16.7481 7.86348C17.0827 7.52886 17.25 7.11284 17.25 6.6154C17.25 6.11795 17.0827 5.70192 16.7481 5.3673C16.4135 5.03269 15.9974 4.86538 15.5 4.86538C15.041 4.86538 14.6538 5.00704 14.3385 5.29038C14.0231 5.57371 13.8397 5.93204 13.7885 6.36538H12.2692C12.3269 5.51026 12.6628 4.79648 13.2769 4.22405C13.891 3.65162 14.6321 3.3654 15.5 3.3654C16.4128 3.3654 17.1827 3.67887 17.8096 4.3058C18.4365 4.93272 18.75 5.70259 18.75 6.6154C18.75 7.52822 18.4365 8.29808 17.8096 8.925C17.1827 9.55192 16.4128 9.86538 15.5 9.86538H2.25ZM18.7501 17.7308V16.2116C19.1834 16.1603 19.5417 15.9769 19.8251 15.6616C20.1084 15.3462 20.2501 14.959 20.2501 14.5C20.2501 14.0026 20.0827 13.5865 19.7481 13.2519C19.4135 12.9173 18.9975 12.75 18.5 12.75H2.25V11.25H18.5C19.4128 11.25 20.1827 11.5635 20.8096 12.1904C21.4365 12.8173 21.75 13.5872 21.75 14.5C21.75 15.3679 21.4638 16.109 20.8913 16.7231C20.3189 17.3372 19.6052 17.6731 18.7501 17.7308Z" fill="#1C1B1F"/>
</g>
</svg>
