<svg width="24" height="24" viewBox="0 0 24 24" fill="none" xmlns="http://www.w3.org/2000/svg">
<mask id="mask0_1_25" style="mask-type:alpha" maskUnits="userSpaceOnUse" x="0" y="0" width="24" height="24">
<rect width="24" height="24" fill="#D9D9D9"/>
</mask>
<g mask="url(#mask0_1_25)">
<path d="M12 21C9.92189 21 8.15236 20.2823 6.69143 18.847C5.2305 17.4117 4.50003 15.6644 4.50003 13.6051C4.50003 12.6222 4.69459 11.6821 5.08371 10.7846C5.47281 9.88719 6.0103 9.09104 6.69618 8.39618L12 3.19235L17.3038 8.39618C17.9897 9.09104 18.5272 9.88733 18.9163 10.785C19.3054 11.6827 19.5 12.6233 19.5 13.6069C19.5 15.6677 18.7695 17.415 17.3086 18.849C15.8476 20.283 14.0781 21 12 21ZM6.00001 13.6096H18C18 12.8263 17.85 12.0793 17.55 11.3686C17.25 10.658 16.8167 10.0351 16.25 9.5L12 5.3L7.75001 9.5C7.18334 10.0351 6.75001 10.658 6.45001 11.3686C6.15001 12.0793 6.00001 12.8263 6.00001 13.6096Z" fill="#1C1B1F"/>
</g>
</svg>
