<svg width="24" height="24" viewBox="0 0 24 24" fill="none" xmlns="http://www.w3.org/2000/svg">
<mask id="mask0_1_129" style="mask-type:alpha" maskUnits="userSpaceOnUse" x="0" y="0" width="24" height="24">
<rect width="24" height="24" fill="#D9D9D9"/>
</mask>
<g mask="url(#mask0_1_129)">
<path d="M14.25 21.5C12.9475 21.5 11.7183 21.2503 10.5625 20.7509C9.40677 20.2516 8.39876 19.5718 7.53851 18.7115C6.67826 17.8513 5.99846 16.8432 5.49911 15.6875C4.99974 14.5317 4.75006 13.3026 4.75006 12C4.75006 10.6872 4.99974 9.45546 5.49911 8.30483C5.99846 7.1542 6.67826 6.14875 7.53851 5.28848C8.39876 4.42823 9.40677 3.74843 10.5625 3.24908C11.7183 2.74971 12.9475 2.50003 14.25 2.50003C14.9705 2.50003 15.6676 2.58144 16.3413 2.74426C17.015 2.90707 17.6512 3.14746 18.25 3.46541C16.8807 4.40644 15.7884 5.6167 14.9731 7.09618C14.1577 8.57566 13.75 10.2103 13.75 12C13.75 13.7897 14.1577 15.4243 14.9731 16.9038C15.7884 18.3833 16.8807 19.5936 18.25 20.5346C17.6512 20.8526 17.015 21.0929 16.3413 21.2558C15.6676 21.4186 14.9705 21.5 14.25 21.5Z" fill="#1C1B1F"/>
</g>
</svg>
