<svg width="24" height="24" viewBox="0 0 24 24" fill="none" xmlns="http://www.w3.org/2000/svg">
<mask id="mask0_1_84" style="mask-type:alpha" maskUnits="userSpaceOnUse" x="0" y="0" width="24" height="24">
<rect width="24" height="24" fill="#D9D9D9"/>
</mask>
<g mask="url(#mask0_1_84)">
<path d="M18.1577 9.94615L17.1039 8.86155L19.0423 6.95388L20.0961 8.0077L18.1577 9.94615ZM2.25003 19.75V18.25H21.75V19.75H2.25003ZM11.25 7.1154V4.4231H12.75V7.1154H11.25ZM5.84233 9.91538L3.93466 7.97693L4.98848 6.9231L6.92691 8.86155L5.84233 9.91538ZM7.42501 14H16.575C16.1917 13.1 15.5901 12.375 14.7702 11.825C13.9503 11.275 13.0269 11 12 11C10.9731 11 10.0497 11.275 9.22981 11.825C8.40994 12.375 7.80834 13.1 7.42501 14ZM5.55773 15.5C5.67313 13.8 6.34749 12.375 7.58081 11.225C8.81414 10.075 10.2872 9.50003 12 9.50003C13.7128 9.50003 15.1859 10.075 16.4192 11.225C17.6525 12.375 18.3269 13.8 18.4423 15.5H5.55773Z" fill="#1C1B1F"/>
</g>
</svg>
