<svg width="25" height="24" viewBox="0 0 25 24" fill="none" xmlns="http://www.w3.org/2000/svg">
<mask id="mask0_1_60" style="mask-type:alpha" maskUnits="userSpaceOnUse" x="0" y="0" width="25" height="24">
<rect x="0.133362" width="24" height="24" fill="#D9D9D9"/>
</mask>
<g mask="url(#mask0_1_60)">
<path d="M12.1357 15.5769C13.2687 15.5769 14.2311 15.1803 15.0228 14.3872C15.8144 13.594 16.2103 12.6308 16.2103 11.4977C16.2103 10.3646 15.8137 9.40227 15.0205 8.61061C14.2273 7.81894 13.2642 7.42311 12.1311 7.42311C10.998 7.42311 10.0356 7.81969 9.24398 8.61286C8.45231 9.40604 8.05648 10.3692 8.05648 11.5023C8.05648 12.6354 8.45306 13.5977 9.24623 14.3894C10.0394 15.1811 11.0026 15.5769 12.1357 15.5769ZM12.1334 14.2C11.3834 14.2 10.7459 13.9375 10.2209 13.4125C9.69588 12.8875 9.43338 12.25 9.43338 11.5C9.43338 10.75 9.69588 10.1125 10.2209 9.58751C10.7459 9.06251 11.3834 8.80001 12.1334 8.80001C12.8834 8.80001 13.5209 9.06251 14.0459 9.58751C14.5709 10.1125 14.8334 10.75 14.8334 11.5C14.8334 12.25 14.5709 12.8875 14.0459 13.4125C13.5209 13.9375 12.8834 14.2 12.1334 14.2ZM12.1348 18.5C9.83513 18.5 7.73981 17.8657 5.84877 16.5971C3.95776 15.3285 2.56546 13.6295 1.67188 11.5C2.56546 9.37052 3.95731 7.67149 5.84743 6.40291C7.73753 5.13432 9.83238 4.50003 12.132 4.50003C14.4316 4.50003 16.5269 5.13432 18.418 6.40291C20.309 7.67149 21.7013 9.37052 22.5949 11.5C21.7013 13.6295 20.3094 15.3285 18.4193 16.5971C16.5292 17.8657 14.4344 18.5 12.1348 18.5ZM12.1334 17C14.0167 17 15.7459 16.5042 17.3209 15.5125C18.8959 14.5208 20.1 13.1833 20.9334 11.5C20.1 9.81667 18.8959 8.47917 17.3209 7.48751C15.7459 6.49584 14.0167 6.00001 12.1334 6.00001C10.25 6.00001 8.52088 6.49584 6.94588 7.48751C5.37088 8.47917 4.16671 9.81667 3.33338 11.5C4.16671 13.1833 5.37088 14.5208 6.94588 15.5125C8.52088 16.5042 10.25 17 12.1334 17Z" fill="#1C1B1F"/>
</g>
</svg>
